<svg xmlns="http://www.w3.org/2000/svg" viewBox="0 0 24 24"><defs><style>.cls-1{fill:#a8ed8a;}.cls-2{fill:#8ae872;}</style></defs><title>shopping cart</title><g id="Layer_2" data-name="Layer 2"><path class="cls-1" d="M17.84,17a2.52,2.52,0,1,0,2.53,2.52A2.52,2.52,0,0,0,17.84,17Zm0,3a.52.52,0,1,1,.53-.52A.52.52,0,0,1,17.84,20Z" id="id_113" style="fill: rgb(30, 204, 48);"></path><path class="cls-1" d="M10.84,17a2.52,2.52,0,1,0,2.53,2.52A2.52,2.52,0,0,0,10.84,17Zm0,3a.52.52,0,1,1,.53-.52A.52.52,0,0,1,10.84,20Z" id="id_114" style="fill: rgb(37, 204, 54);"></path><path class="cls-1" d="M21.29,6.81a2.19,2.19,0,0,0-1.65-.75H8.42a2.18,2.18,0,0,0-.62.1L7.23,2.83a1,1,0,0,0-1-.83H3A1,1,0,0,0,3,4H5.4l.86,5a1,1,0,0,0,.07.18L6.94,14a2.2,2.2,0,0,0,2.18,1.93h9.82A2.19,2.19,0,0,0,21.12,14l.7-5.48A2.18,2.18,0,0,0,21.29,6.81Z" id="id_115" style="fill: rgb(34, 201, 51);"></path><path class="cls-2" d="M13.37,19.48A2.53,2.53,0,0,1,10.84,22V20a.52.52,0,1,0,0-1V17A2.53,2.53,0,0,1,13.37,19.48Z" id="id_116" style="fill: rgb(32, 201, 49);"></path><path class="cls-2" d="M20.37,19.48A2.53,2.53,0,0,1,17.84,22V20a.52.52,0,1,0,0-1V17A2.53,2.53,0,0,1,20.37,19.48Z" id="id_117" style="fill: rgb(34, 204, 51);"></path><path class="cls-2" d="M21.82,8.54,21.12,14a2.19,2.19,0,0,1-2.18,1.92H14.2V6.06h5.44a2.2,2.2,0,0,1,2.18,2.48Z" id="id_118" style="fill: rgb(34, 199, 50);"></path></g></svg>