<svg xmlns="http://www.w3.org/2000/svg" viewBox="0 0 64 64"><g id="Layer_4" data-name="Layer 4"><path d="M60.49,3.51a1.71,1.71,0,0,0-2.07-.28C51.66,7,40,13.57,38,15.55a7.16,7.16,0,0,0-1.93,3.5,7.38,7.38,0,0,0-4.88,3.81C24.41,21,15.9,23.79,9.74,29.94a27.15,27.15,0,0,0-6.56,10.4,3.53,3.53,0,0,0,6.69,2.24,20,20,0,0,1,4.86-7.66c5.88-5.88,13.89-7.45,17.85-3.49,4.6,5,1.19,13.27-3.5,17.84a20,20,0,0,1-7.66,4.86,3.53,3.53,0,0,0,2.24,6.69,27.07,27.07,0,0,0,10.4-6.56C40.22,48.1,43,39.59,41.14,32.77A7.36,7.36,0,0,0,45,27.9,7.26,7.26,0,0,0,48.45,26c2-2,8.57-13.61,12.32-20.37A1.73,1.73,0,0,0,60.49,3.51ZM41.58,30c-5.17,4.86-12.45-2.43-7.59-7.59C39.17,17.56,46.44,24.84,41.58,30ZM59.85,4.29c-2.3,4.62-7,7.78-10.65,11.22C44,20.06,44,20,48.49,14.8c2.1-2.22,4.73-5.61,6.94-7.64a22.21,22.21,0,0,1,4.28-3A.1.1,0,0,1,59.85,4.29Z"/></g></svg>